<svg width="130" height="99" viewBox="0 0 130 99" fill="none" xmlns="http://www.w3.org/2000/svg">
<path d="M119.862 38.0194V79.2777C119.862 80.2724 119.338 81.2264 118.406 81.9298C117.474 82.6332 116.21 83.0284 114.892 83.0284C113.574 83.0284 112.31 82.6332 111.379 81.9298C110.447 81.2264 109.923 80.2724 109.923 79.2777V64.2747C109.923 61.2904 108.352 58.4283 105.557 56.3181C102.761 54.2079 98.9691 53.0224 95.0154 53.0224H80.1077V8.0134C80.1077 6.02388 79.0606 4.11584 77.1968 2.70904C75.333 1.30224 72.8051 0.511902 70.1692 0.511902H10.5385C7.90262 0.511902 5.37474 1.30224 3.51091 2.70904C1.64709 4.11584 0.600006 6.02388 0.600006 8.0134V90.5299C0.600006 92.5194 1.64709 94.4275 3.51091 95.8343C5.37474 97.2411 7.90262 98.0314 10.5385 98.0314H70.1692C72.8051 98.0314 75.333 97.2411 77.1968 95.8343C79.0606 94.4275 80.1077 92.5194 80.1077 90.5299V60.5239H95.0154C96.3333 60.5239 97.5973 60.9191 98.5292 61.6225C99.4611 62.3259 99.9846 63.2799 99.9846 64.2747V79.2777C99.9846 82.2619 101.555 85.124 104.351 87.2342C107.147 89.3444 110.939 90.5299 114.892 90.5299C118.846 90.5299 122.638 89.3444 125.434 87.2342C128.229 85.124 129.8 82.2619 129.8 79.2777V30.5179C129.8 28.5284 128.753 26.6203 126.889 25.2135C125.025 23.8067 122.497 23.0164 119.862 23.0164V11.6891C119.836 10.7074 119.301 9.77258 118.371 9.08532C117.442 8.39806 116.193 8.01321 114.892 8.0134C114.2 8.02203 113.518 8.13755 112.887 8.35283C112.257 8.56811 111.691 8.8786 111.226 9.26516C110.76 9.65171 110.404 10.1061 110.18 10.6004C109.956 11.0947 109.869 11.6184 109.923 12.1392V30.5179C109.923 32.0016 110.506 33.4519 111.598 34.6855C112.69 35.9191 114.242 36.8806 116.058 37.4484C117.874 38.0162 119.873 38.1647 121.8 37.8753C123.728 37.5858 125.499 36.8714 126.889 35.8223C128.279 34.7732 129.226 33.4365 129.609 31.9814C129.993 30.5262 129.796 29.0179 129.043 27.6472C128.291 26.2765 127.017 25.1049 125.383 24.2806C123.749 23.4564 121.827 23.0164 119.862 23.0164V38.0194ZM70.1692 41.7702C70.1692 42.7649 69.6457 43.7189 68.7138 44.4223C67.7819 45.1257 66.5179 45.5209 65.2 45.5209H15.5077C14.1898 45.5209 12.9258 45.1257 11.9939 44.4223C11.062 43.7189 10.5385 42.7649 10.5385 41.7702V19.2657C10.5385 18.2709 11.062 17.3169 11.9939 16.6135C12.9258 15.9101 14.1898 15.5149 15.5077 15.5149H65.2C66.5179 15.5149 67.7819 15.9101 68.7138 16.6135C69.6457 17.3169 70.1692 18.2709 70.1692 19.2657V41.7702Z" fill="black"/>
</svg>
